<svg width="46" height="46" viewBox="0 0 46 46" fill="none" xmlns="http://www.w3.org/2000/svg">
<path d="M38.8125 22.2813H33.0625V10.7813C33.0613 10.5445 33.0016 10.3117 32.8887 10.1036C32.7759 9.89542 32.6134 9.71837 32.4156 9.58815L23.7906 3.83815C23.5559 3.68358 23.281 3.6012 23 3.6012C22.719 3.6012 22.4441 3.68358 22.2094 3.83815L13.5844 9.58815C13.3866 9.71837 13.2241 9.89542 13.1113 10.1036C12.9984 10.3117 12.9387 10.5445 12.9375 10.7813V22.2813H7.1875C6.04375 22.2813 4.94685 22.7356 4.1381 23.5444C3.32935 24.3531 2.875 25.45 2.875 26.5938V40.9688C2.875 41.35 3.02645 41.7157 3.29603 41.9852C3.56562 42.2548 3.93125 42.4063 4.3125 42.4063H41.6875C42.0687 42.4063 42.4344 42.2548 42.704 41.9852C42.9735 41.7157 43.125 41.35 43.125 40.9688V26.5938C43.125 25.45 42.6707 24.3531 41.8619 23.5444C41.0531 22.7356 39.9562 22.2813 38.8125 22.2813ZM5.75 26.5938C5.75 26.2125 5.90145 25.8469 6.17103 25.5773C6.44062 25.3077 6.80625 25.1563 7.1875 25.1563H12.9375V39.5313H5.75V26.5938ZM15.8125 23.7188V11.5L23 6.75627L30.1875 11.5V39.5313H27.3125V26.5938C27.3125 26.2125 27.1611 25.8469 26.8915 25.5773C26.6219 25.3077 26.2562 25.1563 25.875 25.1563H20.125C19.7438 25.1563 19.3781 25.3077 19.1085 25.5773C18.839 25.8469 18.6875 26.2125 18.6875 26.5938V39.5313H15.8125V23.7188ZM21.5625 39.5313V28.0313H24.4375V39.5313H21.5625ZM40.25 39.5313H33.0625V25.1563H38.8125C39.1937 25.1563 39.5594 25.3077 39.829 25.5773C40.0985 25.8469 40.25 26.2125 40.25 26.5938V39.5313Z" fill="#615956"/>
<path d="M20.125 15.0938H25.875C26.2562 15.0938 26.6219 14.9423 26.8915 14.6727C27.1611 14.4031 27.3125 14.0375 27.3125 13.6562C27.3125 13.275 27.1611 12.9094 26.8915 12.6398C26.6219 12.3702 26.2562 12.2188 25.875 12.2188H20.125C19.7438 12.2188 19.3781 12.3702 19.1085 12.6398C18.839 12.9094 18.6875 13.275 18.6875 13.6562C18.6875 14.0375 18.839 14.4031 19.1085 14.6727C19.3781 14.9423 19.7438 15.0938 20.125 15.0938Z" fill="#615956"/>
<path d="M20.125 20.8438H25.875C26.2562 20.8438 26.6219 20.6923 26.8915 20.4227C27.1611 20.1531 27.3125 19.7875 27.3125 19.4062C27.3125 19.025 27.1611 18.6594 26.8915 18.3898C26.6219 18.1202 26.2562 17.9688 25.875 17.9688H20.125C19.7438 17.9688 19.3781 18.1202 19.1085 18.3898C18.839 18.6594 18.6875 19.025 18.6875 19.4062C18.6875 19.7875 18.839 20.1531 19.1085 20.4227C19.3781 20.6923 19.7438 20.8438 20.125 20.8438Z" fill="#615956"/>
</svg>
